<svg width="645" height="33" viewBox="0 0 645 33" fill="none" xmlns="http://www.w3.org/2000/svg">
<path d="M15.048 1.332V32H12.188V1.332H15.048ZM26.356 1.156V2.476H0.880005V1.156H26.356ZM26.356 2.344V5.908L25.916 5.864V5.116C25.916 4.38267 25.652 3.76666 25.124 3.268C24.6253 2.76933 24.024 2.50533 23.32 2.476V2.344H26.356ZM26.356 0.363998V1.64L20.988 1.156C21.6333 1.156 22.308 1.112 23.012 1.024C23.7453 0.935999 24.42 0.833333 25.036 0.715999C25.652 0.598666 26.092 0.481332 26.356 0.363998ZM12.32 28.788V32H8.8V31.56C8.8 31.56 8.88801 31.56 9.06401 31.56C9.26934 31.56 9.37201 31.56 9.37201 31.56C10.1347 31.56 10.78 31.296 11.308 30.768C11.8653 30.2107 12.1587 29.5507 12.188 28.788H12.32ZM14.916 28.788H15.048C15.0773 29.5507 15.356 30.2107 15.884 30.768C16.4413 31.296 17.1013 31.56 17.864 31.56C17.864 31.56 17.952 31.56 18.128 31.56C18.3333 31.56 18.436 31.56 18.436 31.56V32H14.916V28.788ZM3.916 2.344V2.476C3.18267 2.50533 2.56667 2.76933 2.068 3.268C1.56934 3.76666 1.32 4.38267 1.32 5.116V5.864L0.880005 5.908V2.344H3.916ZM0.880005 0.363998C1.17334 0.481332 1.61334 0.598666 2.2 0.715999C2.816 0.833333 3.49067 0.935999 4.224 1.024C4.95734 1.112 5.632 1.156 6.248 1.156L0.880005 1.64V0.363998Z" fill="#A51C30"/>
<path d="M54.5672 5.6V32H51.7512V5.6H54.5672ZM35.5152 5.6V32H32.6992V5.6H35.5152ZM52.1912 18.316V19.636H35.0312V18.316H52.1912ZM32.8312 29.184V32H29.6192V31.56C29.6192 31.56 29.7072 31.56 29.8832 31.56C30.0592 31.56 30.1472 31.56 30.1472 31.56C30.8512 31.56 31.4379 31.3253 31.9072 30.856C32.4059 30.3867 32.6699 29.8293 32.6992 29.184H32.8312ZM35.3832 29.184H35.5152C35.5152 29.8293 35.7646 30.3867 36.2632 30.856C36.7619 31.3253 37.3632 31.56 38.0672 31.56C38.0672 31.56 38.1552 31.56 38.3312 31.56C38.5072 31.56 38.5952 31.56 38.5952 31.56V32H35.3832V29.184ZM35.3832 8.416V5.6H38.5952V6.04C38.5952 6.04 38.5072 6.04 38.3312 6.04C38.1552 6.04 38.0672 6.04 38.0672 6.04C37.3632 6.04 36.7619 6.27467 36.2632 6.744C35.7646 7.184 35.5152 7.74133 35.5152 8.416H35.3832ZM32.8312 8.416H32.6992C32.6699 7.74133 32.4059 7.184 31.9072 6.744C31.4379 6.27467 30.8512 6.04 30.1472 6.04C30.1472 6.04 30.0592 6.04 29.8832 6.04C29.7072 6.04 29.6192 6.04 29.6192 6.04V5.6H32.8312V8.416ZM51.8832 29.184V32H48.6712V31.56C48.6712 31.56 48.7592 31.56 48.9352 31.56C49.1112 31.56 49.1992 31.56 49.1992 31.56C49.9032 31.56 50.4899 31.3253 50.9592 30.856C51.4579 30.3867 51.7219 29.8293 51.7512 29.184H51.8832ZM54.4352 29.184H54.5672C54.5966 29.8293 54.8459 30.3867 55.3152 30.856C55.8139 31.3253 56.4152 31.56 57.1192 31.56C57.1192 31.56 57.2072 31.56 57.3832 31.56C57.5592 31.56 57.6472 31.56 57.6472 31.56V32H54.4352V29.184ZM54.4352 8.416V5.6H57.6472V6.04C57.6472 6.04 57.5592 6.04 57.3832 6.04C57.2072 6.04 57.1192 6.04 57.1192 6.04C56.4152 6.04 55.8139 6.27467 55.3152 6.744C54.8459 7.184 54.5966 7.74133 54.5672 8.416H54.4352ZM51.8832 8.416H51.7512C51.7219 7.74133 51.4579 7.184 50.9592 6.744C50.4899 6.27467 49.9032 6.04 49.1992 6.04C49.1992 6.04 49.1112 6.04 48.9352 6.04C48.7592 6.04 48.6712 6.04 48.6712 6.04V5.6H51.8832V8.416Z" fill="#A51C30"/>
<path d="M68.4314 5.6V32H65.6153V5.6H68.4314ZM80.2673 30.636L80.1794 32H68.3433V30.636H80.2673ZM78.1993 18.14V19.46H68.3433V18.14H78.1993ZM80.2234 5.6V6.964H68.3433V5.6H80.2234ZM82.7314 25.708L80.3113 32H73.6234L75.1193 30.636C76.586 30.636 77.7594 30.4307 78.6394 30.02C79.5487 29.58 80.282 28.9933 80.8393 28.26C81.3967 27.4973 81.8807 26.6467 82.2914 25.708H82.7314ZM78.1993 19.372V21.88H77.7153V21.308C77.7153 20.8093 77.5687 20.384 77.2754 20.032C76.982 19.6507 76.5273 19.46 75.9113 19.46V19.372H78.1993ZM78.1993 15.72V18.228H75.9113V18.14C76.5273 18.14 76.982 17.964 77.2754 17.612C77.5687 17.2307 77.7153 16.7907 77.7153 16.292V15.72H78.1993ZM80.2234 6.832V9.868H79.7393V9.208C79.7393 8.592 79.534 8.064 79.1234 7.624C78.742 7.184 78.214 6.964 77.5394 6.964V6.832H80.2234ZM80.2234 4.896V6.04L75.2074 5.6C76.1167 5.6 77.0847 5.52667 78.1114 5.38C79.138 5.204 79.842 5.04267 80.2234 4.896ZM65.7033 29.184L66.2754 32H62.4473V31.56C62.4473 31.56 62.55 31.56 62.7553 31.56C62.9607 31.56 63.0634 31.56 63.0634 31.56C63.7967 31.56 64.398 31.3253 64.8673 30.856C65.3367 30.3867 65.586 29.8293 65.6153 29.184H65.7033ZM65.7033 8.372H65.6153C65.586 7.69733 65.3367 7.14 64.8673 6.7C64.398 6.26 63.7967 6.04 63.0634 6.04C63.0634 6.04 62.9607 6.04 62.7553 6.04C62.55 6.04 62.4473 6.04 62.4473 6.04V5.6H66.2754L65.7033 8.372Z" fill="#A51C30"/>
<path d="M126.287 19.152L125.759 26.06C124.996 27.3213 124.028 28.4507 122.855 29.448C121.711 30.416 120.347 31.1933 118.763 31.78C117.208 32.3373 115.419 32.616 113.395 32.616C110.344 32.5867 107.631 31.912 105.255 30.592C102.879 29.272 101.016 27.424 99.6669 25.048C98.3469 22.6427 97.6869 19.812 97.6869 16.556C97.6869 13.3587 98.3469 10.572 99.6669 8.196C100.987 5.79067 102.835 3.928 105.211 2.608C107.616 1.25866 110.432 0.583998 113.659 0.583998C115.83 0.583998 117.78 0.877332 119.511 1.464C121.271 2.02133 122.796 2.72533 124.087 3.576L124.967 9.78H124.571C123.926 7.19867 122.606 5.248 120.611 3.928C118.616 2.57867 116.299 1.904 113.659 1.904C111.078 1.904 108.834 2.52 106.927 3.752C105.05 4.95467 103.583 6.656 102.527 8.856C101.5 11.0267 100.987 13.5787 100.987 16.512C100.987 19.4453 101.5 22.012 102.527 24.212C103.583 26.412 105.035 28.128 106.883 29.36C108.76 30.592 110.931 31.2373 113.395 31.296C115.478 31.296 117.399 30.9147 119.159 30.152C120.948 29.36 122.444 28.084 123.647 26.324C124.85 24.5347 125.612 22.144 125.935 19.152H126.287Z" fill="#A51C30"/>
<path d="M145.505 4.984C147.558 4.984 149.479 5.32133 151.269 5.996C153.087 6.64133 154.671 7.58 156.021 8.812C157.399 10.044 158.47 11.5107 159.233 13.212C159.995 14.884 160.377 16.7467 160.377 18.8C160.377 20.8533 159.995 22.7307 159.233 24.432C158.47 26.104 157.399 27.556 156.021 28.788C154.671 30.02 153.087 30.9733 151.269 31.648C149.479 32.2933 147.558 32.616 145.505 32.616C143.451 32.616 141.53 32.2933 139.741 31.648C137.951 30.9733 136.367 30.02 134.989 28.788C133.639 27.556 132.583 26.104 131.821 24.432C131.058 22.7307 130.677 20.8533 130.677 18.8C130.677 16.7467 131.058 14.884 131.821 13.212C132.583 11.5107 133.639 10.044 134.989 8.812C136.367 7.58 137.951 6.64133 139.741 5.996C141.53 5.32133 143.451 4.984 145.505 4.984ZM145.505 31.296C147.675 31.296 149.641 30.768 151.401 29.712C153.161 28.656 154.554 27.1893 155.581 25.312C156.607 23.4347 157.121 21.264 157.121 18.8C157.121 16.3067 156.607 14.136 155.581 12.288C154.554 10.4107 153.161 8.944 151.401 7.888C149.641 6.832 147.675 6.304 145.505 6.304C143.363 6.304 141.413 6.832 139.653 7.888C137.893 8.944 136.499 10.4107 135.473 12.288C134.446 14.136 133.933 16.3067 133.933 18.8C133.933 21.264 134.446 23.4347 135.473 25.312C136.499 27.1893 137.893 28.656 139.653 29.712C141.413 30.768 143.363 31.296 145.505 31.296Z" fill="#A51C30"/>
<path d="M192.833 4.984L193.229 7.844L182.933 28.128C182.933 28.128 182.816 28.3773 182.581 28.876C182.376 29.3747 182.156 29.976 181.921 30.68C181.686 31.3547 181.51 32 181.393 32.616H180.953L180.337 29.844L192.833 4.984ZM167.049 29.052V32H162.473V31.56C162.473 31.56 162.576 31.56 162.781 31.56C163.016 31.56 163.133 31.56 163.133 31.56C163.896 31.56 164.556 31.34 165.113 30.9C165.7 30.46 166.037 29.844 166.125 29.052H167.049ZM168.369 29.712C168.34 30.152 168.442 30.5773 168.677 30.988C168.912 31.3693 169.352 31.5747 169.997 31.604H170.613V32H168.105V29.712H168.369ZM169.557 4.984H169.997L170.877 7.58L168.149 32H165.729L169.557 4.984ZM169.997 4.984L181.965 27.996L180.953 32.616L169.161 9.824L169.997 4.984ZM193.229 4.984L197.189 32H193.845L190.985 9.868L192.833 4.984H193.229ZM195.869 29.052H196.749C196.866 29.844 197.218 30.46 197.805 30.9C198.392 31.34 199.052 31.56 199.785 31.56C199.785 31.56 199.888 31.56 200.093 31.56C200.328 31.56 200.445 31.56 200.445 31.56V32H195.869V29.052ZM193.537 29.712H193.845V32H191.293V31.604H191.953C192.628 31.5747 193.068 31.3547 193.273 30.944C193.508 30.5333 193.596 30.1227 193.537 29.712Z" fill="#A51C30"/>
<path d="M208.582 5.6H213.466C215.519 5.6 217.294 5.908 218.79 6.524C220.286 7.11067 221.445 7.976 222.266 9.12C223.087 10.2347 223.498 11.5693 223.498 13.124C223.498 14.796 223.117 16.2333 222.354 17.436C221.621 18.6093 220.638 19.5187 219.406 20.164C218.174 20.78 216.81 21.088 215.314 21.088C213.818 21.0587 212.322 20.6773 210.826 19.944V19.504C210.826 19.504 211.061 19.548 211.53 19.636C212.029 19.724 212.659 19.768 213.422 19.768C214.185 19.7387 214.991 19.6067 215.842 19.372C216.693 19.108 217.485 18.6387 218.218 17.964C218.981 17.2893 219.582 16.3213 220.022 15.06C220.139 14.7373 220.213 14.356 220.242 13.916C220.301 13.476 220.33 13.0653 220.33 12.684C220.33 10.8947 219.714 9.48667 218.482 8.46C217.25 7.43333 215.549 6.92 213.378 6.92H209.066C209.066 6.92 209.022 6.81733 208.934 6.612C208.875 6.37733 208.802 6.15733 208.714 5.952C208.626 5.71733 208.582 5.6 208.582 5.6ZM209.154 5.6V32H206.338V5.6H209.154ZM206.426 29.184L206.998 32H203.17V31.56C203.17 31.56 203.273 31.56 203.478 31.56C203.683 31.56 203.786 31.56 203.786 31.56C204.49 31.56 205.077 31.3253 205.546 30.856C206.045 30.3867 206.309 29.8293 206.338 29.184H206.426ZM206.426 8.372H206.338C206.309 7.69733 206.045 7.14 205.546 6.7C205.077 6.26 204.49 6.04 203.786 6.04C203.786 6.04 203.683 6.04 203.478 6.04C203.273 6.04 203.17 6.04 203.17 6.04V5.6H206.998L206.426 8.372ZM209.022 29.184H209.11C209.139 29.8293 209.389 30.3867 209.858 30.856C210.357 31.3253 210.958 31.56 211.662 31.56C211.691 31.56 211.794 31.56 211.97 31.56C212.175 31.56 212.278 31.56 212.278 31.56V32H208.45L209.022 29.184Z" fill="#A51C30"/>
<path d="M232.418 5.6V22.232C232.418 25.0773 233.137 27.3213 234.574 28.964C236.041 30.6067 238.036 31.428 240.558 31.428C243.345 31.428 245.53 30.6507 247.114 29.096C248.728 27.5413 249.534 25.4147 249.534 22.716V5.6H251.558V22.716C251.558 25.7667 250.576 28.1867 248.61 29.976C246.674 31.736 244.005 32.616 240.602 32.616C237.229 32.616 234.545 31.736 232.55 29.976C230.585 28.216 229.602 25.8107 229.602 22.76V5.6H232.418ZM229.69 5.6V7.932H229.602C229.573 7.404 229.353 6.964 228.942 6.612C228.561 6.23067 228.077 6.04 227.49 6.04C227.49 6.04 227.373 6.04 227.138 6.04C226.933 6.04 226.83 6.04 226.83 6.04V5.6H229.69ZM235.19 5.6V6.04C235.19 6.04 235.073 6.04 234.838 6.04C234.633 6.04 234.53 6.04 234.53 6.04C233.973 6.04 233.474 6.23067 233.034 6.612C232.624 6.964 232.418 7.404 232.418 7.932H232.33V5.6H235.19ZM249.622 5.6V7.932H249.534C249.534 7.404 249.329 6.964 248.918 6.612C248.508 6.23067 248.009 6.04 247.422 6.04C247.422 6.04 247.305 6.04 247.07 6.04C246.865 6.04 246.762 6.04 246.762 6.04V5.6H249.622ZM254.33 5.6V6.04C254.33 6.04 254.213 6.04 253.978 6.04C253.773 6.04 253.67 6.04 253.67 6.04C253.113 6.04 252.629 6.23067 252.218 6.612C251.808 6.964 251.588 7.404 251.558 7.932H251.47V5.6H254.33Z" fill="#A51C30"/>
<path d="M270.047 5.732V32H267.187V5.732H270.047ZM280.695 5.556V6.876H256.539V5.556H280.695ZM280.695 6.788V9.824H280.211V9.12C280.211 8.504 280.006 7.99067 279.595 7.58C279.214 7.14 278.686 6.90533 278.011 6.876V6.788H280.695ZM280.695 4.852V5.996L275.767 5.556C276.354 5.556 276.97 5.52667 277.615 5.468C278.29 5.38 278.906 5.27733 279.463 5.16C280.02 5.04267 280.431 4.94 280.695 4.852ZM267.275 29.184V32H264.063V31.56C264.092 31.56 264.18 31.56 264.327 31.56C264.503 31.56 264.591 31.56 264.591 31.56C265.295 31.56 265.896 31.3253 266.395 30.856C266.894 30.3867 267.158 29.8293 267.187 29.184H267.275ZM269.915 29.184H270.047C270.076 29.8293 270.34 30.3867 270.839 30.856C271.338 31.3253 271.939 31.56 272.643 31.56C272.643 31.56 272.716 31.56 272.863 31.56C273.039 31.56 273.127 31.56 273.127 31.56V32H269.915V29.184ZM259.223 6.788V6.876C258.548 6.90533 258.006 7.14 257.595 7.58C257.214 7.99067 257.023 8.504 257.023 9.12V9.824H256.539V6.788H259.223ZM256.539 4.852C256.803 4.94 257.199 5.04267 257.727 5.16C258.284 5.27733 258.9 5.38 259.575 5.468C260.25 5.52667 260.88 5.556 261.467 5.556L256.539 5.996V4.852Z" fill="#A51C30"/>
<path d="M289.72 5.6V32H286.904V5.6H289.72ZM301.556 30.636L301.468 32H289.632V30.636H301.556ZM299.488 18.14V19.46H289.632V18.14H299.488ZM301.512 5.6V6.964H289.632V5.6H301.512ZM304.02 25.708L301.6 32H294.912L296.408 30.636C297.875 30.636 299.048 30.4307 299.928 30.02C300.838 29.58 301.571 28.9933 302.128 28.26C302.686 27.4973 303.17 26.6467 303.58 25.708H304.02ZM299.488 19.372V21.88H299.004V21.308C299.004 20.8093 298.858 20.384 298.564 20.032C298.271 19.6507 297.816 19.46 297.2 19.46V19.372H299.488ZM299.488 15.72V18.228H297.2V18.14C297.816 18.14 298.271 17.964 298.564 17.612C298.858 17.2307 299.004 16.7907 299.004 16.292V15.72H299.488ZM301.512 6.832V9.868H301.028V9.208C301.028 8.592 300.823 8.064 300.412 7.624C300.031 7.184 299.503 6.964 298.828 6.964V6.832H301.512ZM301.512 4.896V6.04L296.496 5.6C297.406 5.6 298.374 5.52667 299.4 5.38C300.427 5.204 301.131 5.04267 301.512 4.896ZM286.992 29.184L287.564 32H283.736V31.56C283.736 31.56 283.839 31.56 284.044 31.56C284.25 31.56 284.352 31.56 284.352 31.56C285.086 31.56 285.687 31.3253 286.156 30.856C286.626 30.3867 286.875 29.8293 286.904 29.184H286.992ZM286.992 8.372H286.904C286.875 7.69733 286.626 7.14 286.156 6.7C285.687 6.26 285.086 6.04 284.352 6.04C284.352 6.04 284.25 6.04 284.044 6.04C283.839 6.04 283.736 6.04 283.736 6.04V5.6H287.564L286.992 8.372Z" fill="#A51C30"/>
<path d="M312.694 5.6H318.37C319.749 5.6 320.981 5.76133 322.066 6.084C323.181 6.40667 324.12 6.876 324.882 7.492C325.674 8.108 326.276 8.856 326.686 9.736C327.097 10.616 327.302 11.6133 327.302 12.728C327.302 13.96 327.009 15.104 326.422 16.16C325.836 17.216 325.014 18.0813 323.958 18.756C322.932 19.4307 321.758 19.8413 320.438 19.988C320.937 20.1933 321.509 20.648 322.154 21.352C322.829 22.056 323.401 22.7453 323.87 23.42C323.87 23.42 324.061 23.684 324.442 24.212C324.824 24.7107 325.308 25.3413 325.894 26.104C326.51 26.8373 327.112 27.5413 327.698 28.216C328.314 28.8907 328.872 29.4773 329.37 29.976C329.898 30.4747 330.456 30.8707 331.042 31.164C331.658 31.428 332.362 31.56 333.154 31.56V32H331.79C330.177 32 328.842 31.7947 327.786 31.384C326.76 30.9733 325.924 30.4747 325.278 29.888C324.633 29.272 324.076 28.6853 323.606 28.128C323.489 27.9813 323.21 27.6147 322.77 27.028C322.36 26.412 321.905 25.752 321.406 25.048C320.908 24.344 320.453 23.7133 320.042 23.156C319.632 22.5693 319.382 22.2173 319.294 22.1C318.708 21.3373 318.033 20.6627 317.27 20.076C316.508 19.46 315.701 19.152 314.85 19.152V18.712C314.85 18.712 315.085 18.7267 315.554 18.756C316.024 18.756 316.625 18.7413 317.358 18.712C318.18 18.6827 319.001 18.624 319.822 18.536C320.644 18.4187 321.406 18.096 322.11 17.568C322.844 17.04 323.416 16.16 323.826 14.928C323.944 14.6053 324.032 14.224 324.09 13.784C324.149 13.344 324.164 12.8893 324.134 12.42C324.105 11.5987 323.944 10.8653 323.65 10.22C323.386 9.57467 322.99 9.01733 322.462 8.548C321.964 8.07867 321.362 7.712 320.658 7.448C319.954 7.184 319.162 7.03733 318.282 7.008C316.904 6.94933 315.701 6.93467 314.674 6.964C313.648 6.99333 313.134 6.99333 313.134 6.964C313.134 6.93467 313.09 6.81733 313.002 6.612C312.944 6.37733 312.87 6.15733 312.782 5.952C312.724 5.71733 312.694 5.6 312.694 5.6ZM313.222 5.6V32H310.406V5.6H313.222ZM310.538 29.184L311.066 32H307.326V31.56C307.326 31.56 307.429 31.56 307.634 31.56C307.84 31.56 307.942 31.56 307.942 31.56C308.646 31.56 309.233 31.3253 309.702 30.856C310.172 30.3867 310.421 29.8293 310.45 29.184H310.538ZM310.538 8.372H310.45C310.421 7.69733 310.172 7.14 309.702 6.7C309.233 6.26 308.646 6.04 307.942 6.04C307.942 6.04 307.84 6.04 307.634 6.04C307.429 6.04 307.326 6.04 307.326 6.04V5.6H311.066L310.538 8.372ZM313.09 29.184H313.222C313.252 29.8293 313.501 30.3867 313.97 30.856C314.44 31.3253 315.026 31.56 315.73 31.56C315.73 31.56 315.818 31.56 315.994 31.56C316.2 31.56 316.302 31.56 316.302 31.56L316.346 32H312.562L313.09 29.184Z" fill="#A51C30"/>
<path d="M354.536 0.583998C355.006 0.583998 355.504 0.613332 356.032 0.672C356.59 0.730666 357.118 0.818665 357.616 0.935999C358.144 1.024 358.614 1.12667 359.024 1.244C359.464 1.332 359.802 1.43467 360.036 1.552V6.436H359.64C359.64 5.028 359.156 3.928 358.188 3.136C357.22 2.31467 356.047 1.904 354.668 1.904C353.055 1.904 351.75 2.41733 350.752 3.444C349.755 4.44133 349.256 5.61467 349.256 6.964C349.256 7.52133 349.374 8.18133 349.608 8.944C349.872 9.67733 350.342 10.3667 351.016 11.012L359.684 19.02C360.564 19.8413 361.151 20.7213 361.444 21.66C361.738 22.5987 361.884 23.508 361.884 24.388C361.884 26.8227 361.136 28.8027 359.64 30.328C358.174 31.8533 356.179 32.616 353.656 32.616C352.952 32.616 352.116 32.5427 351.148 32.396C350.21 32.2493 349.286 32 348.376 31.648C347.496 31.2667 346.763 30.7827 346.176 30.196C346.088 29.7267 346.044 29.14 346.044 28.436C346.044 27.732 346.103 26.9987 346.22 26.236C346.338 25.444 346.499 24.7253 346.704 24.08H347.1C346.954 25.576 347.144 26.8813 347.672 27.996C348.2 29.1107 348.963 29.9613 349.96 30.548C350.987 31.1053 352.146 31.3547 353.436 31.296C355.05 31.208 356.428 30.6507 357.572 29.624C358.746 28.568 359.332 27.16 359.332 25.4C359.332 24.5493 359.186 23.7867 358.892 23.112C358.599 22.408 358.174 21.8067 357.616 21.308L349.168 13.476C348.288 12.6547 347.672 11.76 347.32 10.792C346.968 9.79467 346.792 8.87067 346.792 8.02C346.792 6.788 347.086 5.6 347.672 4.456C348.259 3.312 349.124 2.388 350.268 1.684C351.442 0.950665 352.864 0.583998 354.536 0.583998ZM360.036 1.024V1.948H356.692V1.024H360.036Z" fill="#A51C30"/>
<path d="M393.679 20.912L393.195 26.94C392.432 28.1133 391.435 29.1253 390.203 29.976C388.971 30.8267 387.578 31.4867 386.023 31.956C384.468 32.396 382.826 32.616 381.095 32.616C378.132 32.5867 375.551 32.0147 373.351 30.9C371.18 29.7853 369.508 28.2013 368.335 26.148C367.162 24.0947 366.575 21.6453 366.575 18.8C366.575 15.9253 367.162 13.4613 368.335 11.408C369.508 9.35467 371.18 7.77067 373.351 6.656C375.551 5.54133 378.132 4.984 381.095 4.984C382.914 4.984 384.747 5.21867 386.595 5.688C388.443 6.15733 390.042 6.81733 391.391 7.668L392.359 13.872H391.963C391.318 11.1733 390.012 9.23733 388.047 8.064C386.111 6.89067 383.779 6.304 381.051 6.304C378.734 6.304 376.724 6.81733 375.023 7.844C373.351 8.84133 372.046 10.2787 371.107 12.156C370.198 14.004 369.743 16.2187 369.743 18.8C369.743 21.3227 370.198 23.5227 371.107 25.4C372.046 27.248 373.366 28.6853 375.067 29.712C376.768 30.7093 378.778 31.2227 381.095 31.252C383.295 31.252 385.275 30.9 387.035 30.196C388.824 29.4627 390.276 28.3333 391.391 26.808C392.506 25.2827 393.136 23.3173 393.283 20.912H393.679Z" fill="#A51C30"/>
<path d="M404.198 5.6V32H401.426V5.6H404.198ZM401.558 29.184V32H397.818V31.56C397.818 31.56 397.921 31.56 398.126 31.56C398.332 31.56 398.434 31.56 398.434 31.56C399.256 31.56 399.945 31.3253 400.502 30.856C401.089 30.3867 401.397 29.8293 401.426 29.184H401.558ZM404.066 29.184H404.198C404.228 29.8293 404.521 30.3867 405.078 30.856C405.665 31.3253 406.369 31.56 407.19 31.56C407.19 31.56 407.278 31.56 407.454 31.56C407.66 31.56 407.762 31.56 407.762 31.56L407.806 32H404.066V29.184ZM404.066 8.416V5.6H407.806L407.762 6.04C407.762 6.04 407.66 6.04 407.454 6.04C407.278 6.04 407.19 6.04 407.19 6.04C406.369 6.04 405.665 6.27467 405.078 6.744C404.521 7.184 404.228 7.74133 404.198 8.416H404.066ZM401.558 8.416H401.426C401.397 7.74133 401.089 7.184 400.502 6.744C399.945 6.27467 399.256 6.04 398.434 6.04C398.405 6.04 398.288 6.04 398.082 6.04C397.906 6.04 397.818 6.04 397.818 6.04V5.6H401.558V8.416Z" fill="#A51C30"/>
<path d="M418.584 5.6V32H415.768V5.6H418.584ZM430.42 30.636L430.332 32H418.496V30.636H430.42ZM428.352 18.14V19.46H418.496V18.14H428.352ZM430.376 5.6V6.964H418.496V5.6H430.376ZM432.884 25.708L430.464 32H423.776L425.272 30.636C426.738 30.636 427.912 30.4307 428.792 30.02C429.701 29.58 430.434 28.9933 430.992 28.26C431.549 27.4973 432.033 26.6467 432.444 25.708H432.884ZM428.352 19.372V21.88H427.868V21.308C427.868 20.8093 427.721 20.384 427.428 20.032C427.134 19.6507 426.68 19.46 426.064 19.46V19.372H428.352ZM428.352 15.72V18.228H426.064V18.14C426.68 18.14 427.134 17.964 427.428 17.612C427.721 17.2307 427.868 16.7907 427.868 16.292V15.72H428.352ZM430.376 6.832V9.868H429.892V9.208C429.892 8.592 429.686 8.064 429.276 7.624C428.894 7.184 428.366 6.964 427.692 6.964V6.832H430.376ZM430.376 4.896V6.04L425.36 5.6C426.269 5.6 427.237 5.52667 428.264 5.38C429.29 5.204 429.994 5.04267 430.376 4.896ZM415.856 29.184L416.428 32H412.6V31.56C412.6 31.56 412.702 31.56 412.908 31.56C413.113 31.56 413.216 31.56 413.216 31.56C413.949 31.56 414.55 31.3253 415.02 30.856C415.489 30.3867 415.738 29.8293 415.768 29.184H415.856ZM415.856 8.372H415.768C415.738 7.69733 415.489 7.14 415.02 6.7C414.55 6.26 413.949 6.04 413.216 6.04C413.216 6.04 413.113 6.04 412.908 6.04C412.702 6.04 412.6 6.04 412.6 6.04V5.6H416.428L415.856 8.372Z" fill="#A51C30"/>
<path d="M438.951 4.94L463.327 27.908L463.767 32.616L439.391 9.516L438.951 4.94ZM439.039 29.272V32H435.739V31.56C435.739 31.56 435.857 31.56 436.091 31.56C436.355 31.56 436.487 31.56 436.487 31.56C437.162 31.56 437.734 31.34 438.203 30.9C438.673 30.46 438.907 29.9173 438.907 29.272H439.039ZM440.887 29.272C440.887 29.9173 441.122 30.46 441.591 30.9C442.09 31.34 442.662 31.56 443.307 31.56C443.307 31.56 443.425 31.56 443.659 31.56C443.923 31.56 444.055 31.56 444.055 31.56V32H440.755V29.272H440.887ZM438.951 4.94L440.843 7.404L440.887 32H438.907V10.44C438.907 8.944 438.834 7.65333 438.687 6.568C438.57 5.48267 438.511 4.94 438.511 4.94H438.951ZM463.767 5.6V26.984C463.767 27.9227 463.797 28.832 463.855 29.712C463.914 30.5627 463.973 31.2667 464.031 31.824C464.119 32.352 464.163 32.616 464.163 32.616H463.767L461.831 30.284V5.6H463.767ZM463.635 8.328V5.6H466.935V6.04C466.935 6.04 466.803 6.04 466.539 6.04C466.305 6.04 466.187 6.04 466.187 6.04C465.542 6.04 464.97 6.26 464.471 6.7C464.002 7.14 463.767 7.68267 463.767 8.328H463.635ZM461.831 8.328C461.802 7.68267 461.553 7.14 461.083 6.7C460.614 6.26 460.042 6.04 459.367 6.04C459.367 6.04 459.235 6.04 458.971 6.04C458.737 6.04 458.619 6.04 458.619 6.04V5.6H461.919V8.328H461.831Z" fill="#A51C30"/>
<path d="M497.577 20.912L497.093 26.94C496.331 28.1133 495.333 29.1253 494.101 29.976C492.869 30.8267 491.476 31.4867 489.921 31.956C488.367 32.396 486.724 32.616 484.993 32.616C482.031 32.5867 479.449 32.0147 477.249 30.9C475.079 29.7853 473.407 28.2013 472.233 26.148C471.06 24.0947 470.473 21.6453 470.473 18.8C470.473 15.9253 471.06 13.4613 472.233 11.408C473.407 9.35467 475.079 7.77067 477.249 6.656C479.449 5.54133 482.031 4.984 484.993 4.984C486.812 4.984 488.645 5.21867 490.493 5.688C492.341 6.15733 493.94 6.81733 495.289 7.668L496.257 13.872H495.861C495.216 11.1733 493.911 9.23733 491.945 8.064C490.009 6.89067 487.677 6.304 484.949 6.304C482.632 6.304 480.623 6.81733 478.921 7.844C477.249 8.84133 475.944 10.2787 475.005 12.156C474.096 14.004 473.641 16.2187 473.641 18.8C473.641 21.3227 474.096 23.5227 475.005 25.4C475.944 27.248 477.264 28.6853 478.965 29.712C480.667 30.7093 482.676 31.2227 484.993 31.252C487.193 31.252 489.173 30.9 490.933 30.196C492.723 29.4627 494.175 28.3333 495.289 26.808C496.404 25.2827 497.035 23.3173 497.181 20.912H497.577Z" fill="#A51C30"/>
<path d="M507.701 5.6V32H504.885V5.6H507.701ZM519.537 30.636L519.449 32H507.613V30.636H519.537ZM517.469 18.14V19.46H507.613V18.14H517.469ZM519.493 5.6V6.964H507.613V5.6H519.493ZM522.001 25.708L519.581 32H512.893L514.389 30.636C515.856 30.636 517.029 30.4307 517.909 30.02C518.818 29.58 519.552 28.9933 520.109 28.26C520.666 27.4973 521.15 26.6467 521.561 25.708H522.001ZM517.469 19.372V21.88H516.985V21.308C516.985 20.8093 516.838 20.384 516.545 20.032C516.252 19.6507 515.797 19.46 515.181 19.46V19.372H517.469ZM517.469 15.72V18.228H515.181V18.14C515.797 18.14 516.252 17.964 516.545 17.612C516.838 17.2307 516.985 16.7907 516.985 16.292V15.72H517.469ZM519.493 6.832V9.868H519.009V9.208C519.009 8.592 518.804 8.064 518.393 7.624C518.012 7.184 517.484 6.964 516.809 6.964V6.832H519.493ZM519.493 4.896V6.04L514.477 5.6C515.386 5.6 516.354 5.52667 517.381 5.38C518.408 5.204 519.112 5.04267 519.493 4.896ZM504.973 29.184L505.545 32H501.717V31.56C501.717 31.56 501.82 31.56 502.025 31.56C502.23 31.56 502.333 31.56 502.333 31.56C503.066 31.56 503.668 31.3253 504.137 30.856C504.606 30.3867 504.856 29.8293 504.885 29.184H504.973ZM504.973 8.372H504.885C504.856 7.69733 504.606 7.14 504.137 6.7C503.668 6.26 503.066 6.04 502.333 6.04C502.333 6.04 502.23 6.04 502.025 6.04C501.82 6.04 501.717 6.04 501.717 6.04V5.6H505.545L504.973 8.372Z" fill="#A51C30"/>
<path d="M564.06 1.2V32H561.2V1.2H564.06ZM543.204 1.2V32H540.344V1.2H543.204ZM561.596 16.116V17.436H542.764V16.116H561.596ZM540.476 28.788V32H536.956V31.56C536.956 31.56 537.044 31.56 537.22 31.56C537.426 31.56 537.528 31.56 537.528 31.56C538.291 31.56 538.936 31.296 539.464 30.768C540.022 30.2107 540.315 29.5507 540.344 28.788H540.476ZM540.476 4.412H540.344C540.315 3.64933 540.022 3.004 539.464 2.476C538.936 1.91867 538.291 1.64 537.528 1.64C537.528 1.64 537.426 1.64 537.22 1.64C537.044 1.64 536.956 1.64 536.956 1.64V1.2H540.476V4.412ZM543.072 28.788H543.204C543.234 29.5507 543.512 30.2107 544.04 30.768C544.598 31.296 545.258 31.56 546.02 31.56C546.02 31.56 546.108 31.56 546.284 31.56C546.46 31.56 546.563 31.56 546.592 31.56V32H543.072V28.788ZM543.072 4.412V1.2H546.592V1.64C546.563 1.64 546.46 1.64 546.284 1.64C546.108 1.64 546.02 1.64 546.02 1.64C545.258 1.64 544.598 1.91867 544.04 2.476C543.512 3.004 543.234 3.64933 543.204 4.412H543.072ZM561.332 28.788V32H557.812V31.56C557.842 31.56 557.944 31.56 558.12 31.56C558.296 31.56 558.384 31.56 558.384 31.56C559.147 31.56 559.807 31.296 560.364 30.768C560.922 30.2107 561.2 29.5507 561.2 28.788H561.332ZM561.332 4.412H561.2C561.2 3.64933 560.922 3.004 560.364 2.476C559.807 1.91867 559.147 1.64 558.384 1.64C558.384 1.64 558.296 1.64 558.12 1.64C557.944 1.64 557.842 1.64 557.812 1.64V1.2H561.332V4.412ZM563.928 28.788H564.06C564.09 29.5507 564.368 30.2107 564.896 30.768C565.454 31.296 566.114 31.56 566.876 31.56C566.876 31.56 566.964 31.56 567.14 31.56C567.346 31.56 567.448 31.56 567.448 31.56V32H563.928V28.788ZM563.928 4.412V1.2H567.448V1.64C567.448 1.64 567.346 1.64 567.14 1.64C566.964 1.64 566.876 1.64 566.876 1.64C566.114 1.64 565.454 1.91867 564.896 2.476C564.368 3.004 564.09 3.64933 564.06 4.412H563.928Z" fill="#A51C30"/>
<path d="M584.893 4.984L596.993 31.736H593.517L584.145 8.9L584.893 4.984ZM576.401 28.788C576.079 29.668 576.123 30.3573 576.533 30.856C576.944 31.3253 577.413 31.56 577.941 31.56H578.293V32H569.889V31.56C569.889 31.56 569.948 31.56 570.065 31.56C570.183 31.56 570.241 31.56 570.241 31.56C570.857 31.56 571.488 31.3547 572.133 30.944C572.779 30.504 573.336 29.7853 573.805 28.788H576.401ZM584.893 4.984L585.201 8.02L575.125 31.868H572.353L582.781 9.516C582.781 9.516 582.855 9.34 583.001 8.988C583.177 8.636 583.368 8.21067 583.573 7.712C583.808 7.184 584.013 6.67067 584.189 6.172C584.365 5.67333 584.468 5.27733 584.497 4.984H584.893ZM590.085 21.748V23.068H578.425V21.748H590.085ZM592.329 28.788H595.673C596.113 29.7853 596.656 30.504 597.301 30.944C597.947 31.3547 598.563 31.56 599.149 31.56C599.149 31.56 599.208 31.56 599.325 31.56C599.443 31.56 599.501 31.56 599.501 31.56V32H590.481V31.56H590.833C591.332 31.56 591.787 31.3253 592.197 30.856C592.608 30.3573 592.652 29.668 592.329 28.788Z" fill="#A51C30"/>
<path d="M607.689 5.6V32H604.873V5.6H607.689ZM619.525 30.636L619.437 32H607.601V30.636H619.525ZM621.989 25.708L619.569 32H612.881L614.377 30.636C615.844 30.636 617.017 30.4307 617.897 30.02C618.806 29.58 619.54 28.9933 620.097 28.26C620.655 27.4973 621.138 26.6467 621.549 25.708H621.989ZM604.961 29.184L605.533 32H601.705V31.56C601.705 31.56 601.808 31.56 602.013 31.56C602.219 31.56 602.321 31.56 602.321 31.56C603.055 31.56 603.656 31.3253 604.125 30.856C604.595 30.3867 604.844 29.8293 604.873 29.184H604.961ZM607.557 8.416V5.6H610.813V6.04C610.813 6.04 610.725 6.04 610.549 6.04C610.373 6.04 610.285 6.04 610.285 6.04C609.581 6.04 608.965 6.27467 608.437 6.744C607.938 7.184 607.689 7.74133 607.689 8.416H607.557ZM604.961 8.416H604.873C604.844 7.74133 604.58 7.184 604.081 6.744C603.583 6.27467 602.966 6.04 602.233 6.04C602.233 6.04 602.145 6.04 601.969 6.04C601.793 6.04 601.705 6.04 601.705 6.04V5.6H604.961V8.416Z" fill="#A51C30"/>
<path d="M630.205 5.6V32H627.389V5.6H630.205ZM642.041 30.636L641.953 32H630.117V30.636H642.041ZM644.505 25.708L642.085 32H635.397L636.893 30.636C638.359 30.636 639.533 30.4307 640.413 30.02C641.322 29.58 642.055 28.9933 642.613 28.26C643.17 27.4973 643.654 26.6467 644.065 25.708H644.505ZM627.477 29.184L628.049 32H624.221V31.56C624.221 31.56 624.323 31.56 624.529 31.56C624.734 31.56 624.837 31.56 624.837 31.56C625.57 31.56 626.171 31.3253 626.641 30.856C627.11 30.3867 627.359 29.8293 627.389 29.184H627.477ZM630.073 8.416V5.6H633.329V6.04C633.329 6.04 633.241 6.04 633.065 6.04C632.889 6.04 632.801 6.04 632.801 6.04C632.097 6.04 631.481 6.27467 630.953 6.744C630.454 7.184 630.205 7.74133 630.205 8.416H630.073ZM627.477 8.416H627.389C627.359 7.74133 627.095 7.184 626.597 6.744C626.098 6.27467 625.482 6.04 624.749 6.04C624.749 6.04 624.661 6.04 624.485 6.04C624.309 6.04 624.221 6.04 624.221 6.04V5.6H627.477V8.416Z" fill="#A51C30"/>
</svg>
